<?xml version="1.0" encoding="UTF-8" standalone="no"?>
<!-- Generator: Adobe Illustrator 23.1.0, SVG Export Plug-In . SVG Version: 6.00 Build 0)  -->

<svg
   xmlns:dc="http://purl.org/dc/elements/1.1/"
   xmlns:cc="http://creativecommons.org/ns#"
   xmlns:rdf="http://www.w3.org/1999/02/22-rdf-syntax-ns#"
   xmlns:svg="http://www.w3.org/2000/svg"
   xmlns="http://www.w3.org/2000/svg"
   xmlns:xlink="http://www.w3.org/1999/xlink"
   xmlns:sodipodi="http://sodipodi.sourceforge.net/DTD/sodipodi-0.dtd"
   xmlns:inkscape="http://www.inkscape.org/namespaces/inkscape"
   version="1.1"
   id="Layer_1"
   x="0px"
   y="0px"
   viewBox="0 0 1514.2863 1107.6296"
   xml:space="preserve"
   sodipodi:docname="NBillu01.svg"
   width="1514.2863"
   height="1107.6296"
   inkscape:version="0.92.4 (f8dce91, 2019-08-02)"><metadata
   id="metadata4223"><rdf:RDF><cc:Work
       rdf:about=""><dc:format>image/svg+xml</dc:format><dc:type
         rdf:resource="http://purl.org/dc/dcmitype/StillImage" /><dc:title></dc:title></cc:Work></rdf:RDF></metadata><defs
   id="defs4221" /><sodipodi:namedview
   pagecolor="#ffffff"
   bordercolor="#666666"
   borderopacity="1"
   objecttolerance="10"
   gridtolerance="10"
   guidetolerance="10"
   inkscape:pageopacity="0"
   inkscape:pageshadow="2"
   inkscape:window-width="3840"
   inkscape:window-height="2113"
   id="namedview4219"
   showgrid="false"
   fit-margin-top="0"
   fit-margin-left="0"
   fit-margin-right="0"
   fit-margin-bottom="0"
   inkscape:zoom="0.80577778"
   inkscape:cx="1792.073"
   inkscape:cy="482.87602"
   inkscape:window-x="0"
   inkscape:window-y="1049"
   inkscape:window-maximized="1"
   inkscape:current-layer="Layer_1" />
<style
   type="text/css"
   id="style3988">
	.st0{opacity:0.2;fill:url(#SVGID_1_);enable-background:new    ;}
	.st1{fill:url(#SVGID_2_);}
	.st2{fill:url(#SVGID_3_);}
	.st3{clip-path:url(#SVGID_5_);}
	.st4{fill:#F1F2F2;}
	.st5{fill:#5C2F67;}
	.st6{fill:#FFCFB0;}
	.st7{opacity:0.34;}
	.st8{fill:#FA8579;}
	.st9{opacity:0.14;fill:#231F20;enable-background:new    ;}
	.st10{fill:url(#SVGID_6_);}
	.st11{fill:url(#SVGID_7_);}
	.st12{fill:#FFD2D7;}
	.st13{opacity:0.25;}
	.st14{fill:#EE2A7B;}
	.st15{opacity:0.34;fill:#FA8579;enable-background:new    ;}
	.st16{fill:url(#SVGID_8_);}
	.st17{fill:#FFBFB5;}
	.st18{fill:url(#SVGID_9_);}
	.st19{fill:url(#SVGID_10_);}
	.st20{fill:#FEC40C;}
	.st21{fill:url(#SVGID_11_);}
	.st22{fill:#E6E7E8;}
	.st23{fill:#3C3C59;}
	.st24{opacity:0.5;fill:#FFCFB0;enable-background:new    ;}
	.st25{opacity:0.25;fill:#75BFFF;enable-background:new    ;}
	.st26{fill:url(#SVGID_12_);}
	.st27{fill:url(#SVGID_13_);stroke:#8691A1;stroke-width:5;}
	.st28{fill:url(#SVGID_14_);stroke:#5F7079;}
	.st29{fill:#FFFFFF;}
</style>
<g
   id="g4173"
   transform="translate(-1642.0844,-709.81612)">
	
		<linearGradient
   id="SVGID_1_"
   gradientUnits="userSpaceOnUse"
   x1="2726.8936"
   y1="1845.2708"
   x2="1960.6105"
   y2="-181.0125"
   gradientTransform="matrix(1,0,0,-1,0,2249.2759)">
		<stop
   offset="5.319150e-03"
   style="stop-color:#68D8ED"
   id="stop3990" />
		<stop
   offset="1"
   style="stop-color:#5E4EFF"
   id="stop3992" />
	</linearGradient>
	<path
   class="st0"
   d="m 3140.2,1280.1 c 66.5,-238 -78.5,-483 -317.6,-545.4 -127.5,-33.3 -314.5,-56.8 -482.2,91.6 -271.1,239.8 -701.3,170.6 -698.3,545.1 2.5,313.8 548,604.2 1077.2,347.4 259.9,-126.1 378.6,-287.5 420.9,-438.7 z"
   id="path3995"
   style="opacity:0.2;fill:url(#SVGID_1_);enable-background:new"
   inkscape:connector-curvature="0" />
	<g
   id="g4011">
		
			<linearGradient
   id="SVGID_2_"
   gradientUnits="userSpaceOnUse"
   x1="2334.7422"
   y1="1960.8667"
   x2="3358.1697"
   y2="-24.273899"
   gradientTransform="matrix(1,0,0,-1,0,2249.2759)">
			<stop
   offset="5.319150e-03"
   style="stop-color:#68D8ED"
   id="stop3997" />
			<stop
   offset="1"
   style="stop-color:#5E4EFF"
   id="stop3999" />
		</linearGradient>
		<path
   class="st1"
   d="m 2757.1,1698.1 c -68.9,-74 -111.1,-173.2 -111.1,-282.3 0,-228.8 185.5,-414.2 414.2,-414.2 21.7,0 43.1,1.7 63.9,4.9 -12.7,-33.1 -29.4,-64.6 -49.7,-93.8 -4.7,-0.1 -9.5,-0.2 -14.2,-0.2 -278,0 -503.3,225.3 -503.3,503.3 0,122.7 43.9,235.1 116.9,322.5 14.1,-6.1 28.3,-12.5 42.4,-19.4 14.1,-6.9 27.7,-13.8 40.9,-20.8 z"
   id="path4002"
   style="fill:url(#SVGID_2_)"
   inkscape:connector-curvature="0" />
		
			<linearGradient
   id="SVGID_3_"
   gradientUnits="userSpaceOnUse"
   x1="1720.2731"
   y1="1644.0814"
   x2="2743.7026"
   y2="-341.06339"
   gradientTransform="matrix(1,0,0,-1,0,2249.2759)">
			<stop
   offset="5.319150e-03"
   style="stop-color:#68D8ED"
   id="stop4004" />
			<stop
   offset="1"
   style="stop-color:#5E4EFF"
   id="stop4006" />
		</linearGradient>
		<path
   class="st2"
   d="m 2122.1,1800.5 c 34.4,6.8 69.9,11.7 106.4,14.4 67,-85.5 106.9,-193.1 106.9,-310.1 0,-233.1 -158.5,-429.3 -373.7,-486.4 -60.1,22.5 -116.8,45.1 -165.4,73.7 11.8,-1 23.7,-1.5 35.7,-1.5 228.8,0 414.2,185.5 414.2,414.2 0.1,115.8 -47.4,220.6 -124.1,295.7 z"
   id="path4009"
   style="fill:url(#SVGID_3_)"
   inkscape:connector-curvature="0" />
	</g>
	<g
   id="g4171">
		<g
   id="g4169">
			<defs
   id="defs4014">
				<path
   id="SVGID_4_"
   d="m 3140.2,1280.1 c 66.5,-238 -98.2,-570.9 -337.3,-633.3 -127.5,-33.3 -771.8,-40.2 -939.4,108.2 -271.1,239.8 -224.2,241.9 -221.3,616.4 2.5,313.8 548,604.2 1077.2,347.4 259.8,-126.1 378.5,-287.5 420.8,-438.7 z"
   inkscape:connector-curvature="0" />
			</defs>
			<clipPath
   id="SVGID_5_">
				<use
   xlink:href="#SVGID_4_"
   style="overflow:visible"
   id="use4016"
   x="0"
   y="0"
   width="100%"
   height="100%" />
			</clipPath>
			<g
   class="st3"
   clip-path="url(#SVGID_5_)"
   id="g4167">
				<g
   id="g4031">
					<g
   id="g4021">
						<path
   class="st4"
   d="m 2811.5,1193.2 c -2.8,0 -5.2,-2.2 -5.3,-5.1 -0.1,-2.3 -0.3,-4.6 -0.5,-6.9 -0.3,-2.9 1.9,-5.5 4.9,-5.8 3,-0.2 5.5,1.9 5.8,4.9 0.2,2.4 0.4,4.9 0.5,7.3 0.1,2.9 -2.1,5.4 -5.1,5.6 -0.2,0 -0.2,0 -0.3,0 z"
   id="path4019"
   inkscape:connector-curvature="0"
   style="fill:#f1f2f2" />
					</g>
					<g
   id="g4025">
						<path
   class="st4"
   d="m 2138.7,1153.5 c -0.5,0 -1,-0.1 -1.5,-0.2 -2.8,-0.8 -4.5,-3.8 -3.6,-6.6 1.3,-4.6 2.9,-9.4 4.7,-14.1 1,-2.8 4.1,-4.2 6.9,-3.1 2.8,1 4.2,4.1 3.1,6.9 -1.7,4.5 -3.2,8.9 -4.4,13.3 -0.8,2.3 -2.9,3.8 -5.2,3.8 z m 666.2,-1.7 c -2.4,0 -4.5,-1.6 -5.2,-4 -1.2,-4.5 -2.6,-9 -4.1,-13.5 -1,-2.8 0.5,-5.8 3.3,-6.8 2.8,-1 5.8,0.5 6.8,3.3 1.6,4.7 3.1,9.5 4.3,14.2 0.8,2.8 -0.9,5.8 -3.8,6.5 -0.4,0.2 -0.9,0.3 -1.3,0.3 z M 2158,1108.2 c -0.9,0 -1.8,-0.2 -2.6,-0.7 -2.6,-1.4 -3.5,-4.7 -2,-7.3 2.4,-4.2 4.9,-8.5 7.6,-12.7 1.6,-2.5 4.9,-3.2 7.4,-1.6 2.5,1.6 3.2,4.9 1.6,7.4 -2.6,4 -5,8.1 -7.3,12.2 -1,1.7 -2.8,2.7 -4.7,2.7 z m 628.9,-2.3 c -1.9,0 -3.8,-1.1 -4.7,-2.9 -2.1,-4.1 -4.4,-8.3 -6.8,-12.4 -1.5,-2.5 -0.7,-5.8 1.9,-7.3 2.5,-1.5 5.8,-0.7 7.3,1.9 2.5,4.2 4.9,8.6 7.1,12.9 1.4,2.6 0.3,5.8 -2.3,7.2 -0.8,0.4 -1.6,0.6 -2.5,0.6 z m -601,-38.4 c -1.2,0 -2.4,-0.4 -3.4,-1.2 -2.3,-1.9 -2.6,-5.2 -0.8,-7.5 3.1,-3.8 6.3,-7.5 9.5,-11.2 2,-2.2 5.3,-2.4 7.5,-0.5 2.2,2 2.4,5.3 0.5,7.5 -3.2,3.6 -6.3,7.2 -9.2,10.8 -1,1.4 -2.6,2.1 -4.1,2.1 z m 574.4,-3.1 c -1.6,0 -3.2,-0.7 -4.2,-2.1 -2.9,-3.7 -5.9,-7.4 -9,-11 -1.9,-2.2 -1.7,-5.6 0.6,-7.5 2.2,-1.9 5.6,-1.7 7.5,0.6 3.2,3.7 6.3,7.6 9.3,11.4 1.8,2.3 1.4,5.7 -1,7.5 -0.9,0.7 -2,1.1 -3.2,1.1 z m -540.6,-32.9 c -1.4,0 -2.9,-0.6 -3.9,-1.7 -2,-2.2 -1.9,-5.5 0.3,-7.5 3.6,-3.3 7.3,-6.6 11,-9.7 2.2,-1.9 5.6,-1.7 7.5,0.6 1.9,2.2 1.7,5.6 -0.6,7.5 -3.6,3.1 -7.2,6.3 -10.6,9.5 -1.1,0.8 -2.4,1.3 -3.7,1.3 z m 507.4,-3.6 c -1.3,0 -2.6,-0.5 -3.6,-1.4 -3.4,-3.2 -7,-6.4 -10.6,-9.5 -2.2,-1.9 -2.5,-5.3 -0.6,-7.5 1.9,-2.2 5.3,-2.5 7.5,-0.6 3.7,3.2 7.4,6.5 10.9,9.8 2.2,2 2.3,5.4 0.2,7.5 -1,1.2 -2.4,1.7 -3.8,1.7 z m -469,-27.4 c -1.7,0 -3.3,-0.8 -4.4,-2.3 -1.7,-2.4 -1.1,-5.7 1.3,-7.4 4,-2.8 8.1,-5.6 12.1,-8.2 2.5,-1.6 5.8,-0.9 7.4,1.5 1.6,2.5 0.9,5.8 -1.5,7.4 -4,2.6 -7.9,5.3 -11.8,8 -1,0.6 -2.1,1 -3.1,1 z m 430.6,-3.6 c -1.1,0 -2.1,-0.3 -3,-1 -3.9,-2.7 -7.9,-5.4 -11.8,-7.9 -2.5,-1.6 -3.2,-4.9 -1.6,-7.4 1.6,-2.5 4.9,-3.2 7.4,-1.6 4.1,2.6 8.2,5.4 12.2,8.1 2.4,1.7 3,5 1.3,7.4 -1.2,1.6 -2.8,2.4 -4.5,2.4 z m -388.6,-22.3 c -1.9,0 -3.8,-1 -4.7,-2.8 -1.4,-2.6 -0.4,-5.8 2.2,-7.2 4.3,-2.3 8.7,-4.5 13.1,-6.6 2.7,-1.3 5.8,-0.2 7.1,2.5 1.3,2.7 0.2,5.8 -2.5,7.1 -4.3,2.1 -8.5,4.2 -12.7,6.5 -0.8,0.2 -1.7,0.5 -2.5,0.5 z m 346.2,-3 c -0.8,0 -1.6,-0.2 -2.4,-0.6 -4.2,-2.1 -8.5,-4.2 -12.8,-6.2 -2.7,-1.2 -3.8,-4.4 -2.6,-7.1 1.2,-2.7 4.4,-3.8 7.1,-2.6 4.4,2 8.9,4.2 13.2,6.4 2.6,1.3 3.7,4.6 2.3,7.2 -0.9,1.8 -2.8,2.9 -4.8,2.9 z M 2345,954.2 c -2.2,0 -4.2,-1.3 -5,-3.5 -1,-2.8 0.3,-5.8 3.1,-6.9 4.6,-1.7 9.2,-3.4 13.8,-4.9 2.8,-0.9 5.8,0.6 6.8,3.4 0.9,2.8 -0.6,5.8 -3.4,6.8 -4.5,1.5 -9,3.1 -13.4,4.8 -0.6,0.2 -1.3,0.3 -1.9,0.3 z m 256,-2 c -0.6,0 -1.2,-0.1 -1.8,-0.3 -4.4,-1.6 -9,-3.1 -13.5,-4.5 -2.8,-0.9 -4.4,-3.9 -3.5,-6.7 0.9,-2.8 3.9,-4.4 6.7,-3.5 4.7,1.4 9.3,3 13.9,4.6 2.8,1 4.2,4 3.3,6.8 -0.8,2.2 -2.9,3.6 -5.1,3.6 z m -208.8,-12.4 c -2.4,0 -4.6,-1.7 -5.2,-4.1 -0.7,-2.9 1.1,-5.7 4,-6.4 4.7,-1.1 9.6,-2.1 14.3,-3 2.9,-0.6 5.7,1.3 6.2,4.2 0.6,2.9 -1.3,5.7 -4.2,6.2 -4.6,0.9 -9.3,1.9 -13.9,3 -0.4,0.1 -0.8,0.1 -1.2,0.1 z m 161.3,-1 c -0.4,0 -0.7,0 -1.1,-0.1 -4.6,-1 -9.3,-1.9 -14,-2.7 -2.9,-0.5 -4.9,-3.3 -4.4,-6.2 0.5,-2.9 3.3,-4.9 6.2,-4.4 4.8,0.8 9.6,1.8 14.4,2.8 2.9,0.6 4.7,3.4 4.1,6.3 -0.5,2.6 -2.7,4.3 -5.2,4.3 z m -112.6,-6.9 c -2.7,0 -5.1,-2.1 -5.3,-4.9 -0.3,-2.9 1.9,-5.5 4.8,-5.8 4.9,-0.4 9.8,-0.8 14.6,-1 2.9,-0.2 5.5,2.1 5.6,5.1 0.1,2.9 -2.1,5.5 -5.1,5.6 -4.7,0.2 -9.5,0.6 -14.2,1 -0.1,0 -0.2,0 -0.4,0 z"
   id="path4023"
   inkscape:connector-curvature="0"
   style="fill:#f1f2f2" />
					</g>
					<g
   id="g4029">
						<path
   class="st4"
   d="m 2132.4,1195 c -2.9,0 -5.3,-2.4 -5.3,-5.3 0,-2.4 0.1,-4.9 0.2,-7.4 0.2,-2.9 2.7,-5.2 5.6,-5 2.9,0.2 5.2,2.7 5,5.6 -0.1,2.3 -0.2,4.6 -0.2,6.8 0.1,3 -2.3,5.3 -5.3,5.3 z"
   id="path4027"
   inkscape:connector-curvature="0"
   style="fill:#f1f2f2" />
					</g>
				</g>
				<g
   id="g4161">
					<g
   id="g4122">
						<path
   class="st5"
   d="m 2838.2,2001.6 c 0,0 20.2,53.1 4.7,88.6 h -8.6 l -8.6,-27.4 c 0,0 -15.1,26.2 -40.6,39.1 -12.6,6.4 -29.5,5 -45,4.5 0,0 -20.7,-12.7 26.4,-55.8 56.1,-51.2 71.7,-49 71.7,-49 z"
   id="path4033"
   inkscape:connector-curvature="0"
   style="fill:#5c2f67" />
						<path
   class="st5"
   d="m 3015.7,2003.4 c 0,0 35.4,70.1 0,99.8 0,0 -20.4,14.1 -36.6,-16.6 -5.7,-10.9 -8.4,-23.2 -8.2,-35.5 0.1,-11.8 1.3,-29.3 5.7,-49.6 z"
   id="path4035"
   inkscape:connector-curvature="0"
   style="fill:#5c2f67" />
						<path
   class="st6"
   d="m 2998.6,1725 c 0,0 19,75.8 13.8,144.8 -5.2,68.9 2.3,136.7 6.9,152.8 4.6,16.1 0,46 -10.3,47.1 -10.3,1.1 -32.2,-11.5 -32.2,-64.3 0,-52.8 -21.1,-172.8 -41.6,-264.5 z m -214,-18.1 c 0,0 17.5,228.3 19.8,267.4 2.3,39.1 -37.9,76.4 -37.9,76.4 2.3,7.5 14.9,12.1 14.9,12.1 18.8,1.4 37.2,-14.4 48.2,-26.4 6.4,-6.9 9.6,-16.1 9,-25.4 -2.2,-36.5 1.8,-123.6 11.9,-166.5 11.7,-49.4 0,-105.5 0,-105.5 z"
   id="path4037"
   inkscape:connector-curvature="0"
   style="fill:#ffcfb0" />
						<g
   class="st7"
   id="g4043"
   style="opacity:0.34000017">
							<path
   class="st8"
   d="m 2785.6,1720 c -0.6,-8.3 -1,-13.1 -1,-13.1 l 66,32.1 c 0,0 2,9.7 3.5,24.5 -22.8,-7 -46.1,-20.5 -68.5,-43.5 z"
   id="path4039"
   inkscape:connector-curvature="0"
   style="fill:#fa8579" />
							<path
   class="st8"
   d="m 3001.3,1737.1 c -11,7.1 -33,19.6 -61,27 -1.7,-7.9 -3.4,-15.7 -5.1,-23.3 l 63.4,-15.8 c 0,0 1.1,4.4 2.7,12.1 z"
   id="path4041"
   inkscape:connector-curvature="0"
   style="fill:#fa8579" />
						</g>
						<path
   class="st5"
   d="m 2819.9,1368.3 h 170 c 0,0 74.1,125.8 8.6,356.7 0,0 -143,56.9 -224,-27.6 0,0 -5.6,-239.9 45.4,-329.1 z"
   id="path4045"
   inkscape:connector-curvature="0"
   style="fill:#5c2f67" />
						<path
   class="st9"
   d="m 2819.9,1368.3 h 170 c 0,0 71.6,121.5 11.9,344.9 8.1,-52.4 2.2,-246.9 -55.5,-234.6 -64.3,13.8 -151.9,-36.2 -151.9,-36.2 7.1,-29.8 11.6,-56.3 25.5,-74.1 z"
   id="path4047"
   inkscape:connector-curvature="0"
   style="opacity:0.13999999;fill:#231f20;enable-background:new" />
						
							<linearGradient
   id="SVGID_6_"
   gradientUnits="userSpaceOnUse"
   x1="5011.7871"
   y1="961.32501"
   x2="5177.2241"
   y2="1318.6234"
   gradientTransform="rotate(180,4022.3123,1124.638)">
							<stop
   offset="0"
   style="stop-color:#3B234C"
   id="stop4049" />
							<stop
   offset="0.3367"
   style="stop-color:#402550"
   id="stop4051" />
							<stop
   offset="0.75"
   style="stop-color:#4F2A5D"
   id="stop4053" />
							<stop
   offset="1"
   style="stop-color:#5C2F67"
   id="stop4055" />
						</linearGradient>
						<path
   class="st10"
   d="m 2890.8,903.8 c 0,0 69.8,-12.9 88.2,60.6 15.5,65.5 4.9,83.5 49.7,157.9 44.8,74.4 34.5,133.9 -15.5,148.5 -50,14.6 -156,-90.5 -173.2,-219.1 -17.2,-128.6 17.8,-141.8 50.8,-147.9 z"
   id="path4058"
   style="fill:url(#SVGID_6_)"
   inkscape:connector-curvature="0" />
						
							<linearGradient
   id="SVGID_7_"
   gradientUnits="userSpaceOnUse"
   x1="5156.8711"
   y1="1177.2032"
   x2="5134.4204"
   y2="814.61932"
   gradientTransform="rotate(180,4022.3123,1124.638)">
							<stop
   offset="0"
   style="stop-color:#FDABAD"
   id="stop4060" />
							<stop
   offset="1"
   style="stop-color:#FB80B4"
   id="stop4062" />
						</linearGradient>
						<path
   class="st11"
   d="m 2957.2,1098 18.8,5.1 c 15.3,4.2 26.7,17 29,32.7 2.6,17.7 4.5,45.2 1.7,84.9 -5.2,73.5 -4.8,103 8.4,195.1 1.4,10 -4.9,19.6 -14.8,22 -29.7,7.4 -86,12.7 -102.7,-57.4 0,0 -22.4,86.6 -96.2,52.5 -4.8,-2.2 -7.2,-7.6 -5.6,-12.6 5.3,-17.3 16.8,-59.5 20.3,-110 3.3,-48.4 0.3,-104.1 0.5,-147.2 0.2,-29.2 20.1,-54.5 48.5,-61.3 l 9,-2.2 c 2.7,-0.7 5.5,-1 8.2,-1.1 l 63.4,-1.9 c 3.8,-0.1 7.7,0.3 11.5,1.4 z"
   id="path4065"
   style="fill:url(#SVGID_7_)"
   inkscape:connector-curvature="0" />
						<path
   class="st12"
   d="m 2952,1096.4 11.7,3.2 c -3,22.3 -7.7,132.5 -64.8,198 0,0 -57.7,-60.9 -38.1,-194.8 l 17.7,-4.3 z"
   id="path4067"
   inkscape:connector-curvature="0"
   style="fill:#ffd2d7" />
						<path
   class="st8"
   d="M 2814.7,1744.5"
   id="path4069"
   inkscape:connector-curvature="0"
   style="fill:#fa8579" />
						<g
   class="st13"
   id="g4085"
   style="opacity:0.25">
							<path
   class="st14"
   d="M 2954.3,1169.6 H 2857 c -0.1,-3.2 -0.2,-6.5 -0.3,-9.8 h 99.4 c -0.6,3.2 -1.2,6.5 -1.8,9.8 z"
   id="path4071"
   inkscape:connector-curvature="0"
   style="fill:#ee2a7b" />
							<path
   class="st14"
   d="m 2939,1226.3 h -74 c -0.8,-3.2 -1.6,-6.4 -2.3,-9.8 h 79.6 c -1,3.2 -2.2,6.5 -3.3,9.8 z"
   id="path4073"
   inkscape:connector-curvature="0"
   style="fill:#ee2a7b" />
							<path
   class="st14"
   d="m 2962.4,1112 h -102.8 c 0.4,-3 0.7,-6 1.2,-9.1 l 2.8,-0.7 h 99.8 c -0.3,2.6 -0.6,5.9 -1,9.8 z"
   id="path4075"
   inkscape:connector-curvature="0"
   style="fill:#ee2a7b" />
							<path
   class="st14"
   d="m 2882.4,1272.7 h 34.6 c -2,3.3 -4.2,6.6 -6.4,9.8 H 2888 c -1.8,-2.8 -3.6,-6.1 -5.6,-9.8 z"
   id="path4077"
   inkscape:connector-curvature="0"
   style="fill:#ee2a7b" />
							<path
   class="st14"
   d="m 2857.7,1131.7 h 102.6 c -0.4,3.1 -0.8,6.4 -1.3,9.8 h -101.9 c 0.1,-3.2 0.3,-6.5 0.6,-9.8 z"
   id="path4079"
   inkscape:connector-curvature="0"
   style="fill:#ee2a7b" />
							<path
   class="st14"
   d="m 2870.4,1244.6 h 61.3 c -1.5,3.3 -3,6.6 -4.6,9.8 h -53 c -1.3,-3.1 -2.5,-6.4 -3.7,-9.8 z"
   id="path4081"
   inkscape:connector-curvature="0"
   style="fill:#ee2a7b" />
							<path
   class="st14"
   d="m 2858.3,1188.3 h 91.9 c -0.8,3.2 -1.6,6.5 -2.5,9.8 h -88.2 c -0.4,-3.2 -0.8,-6.5 -1.2,-9.8 z"
   id="path4083"
   inkscape:connector-curvature="0"
   style="fill:#ee2a7b" />
						</g>
						<path
   class="st6"
   d="m 2896.6,950.4 c 0,0 11.9,19.8 31.8,24.7 5.8,1.4 10.8,5.3 12.9,10.8 0.6,1.5 1,3.3 1.3,5.2 0,0 0.9,-25.3 14.9,-25.3 14.1,0 9.8,38.8 -5.5,45.7 -15.2,6.9 -19.4,71.5 -10.3,84.9 0,0 -13.4,34 -37.1,24.1 -23.7,-9.9 -18.5,-22 -18.5,-22 0,0 14.6,-3 7.8,-35.3 0,0 -34.5,13.4 -42.7,-39.2 0,0 -5.2,-31.9 -1.7,-52.1 0,0 27,5.2 47.1,-21.5 z"
   id="path4087"
   inkscape:connector-curvature="0"
   style="fill:#ffcfb0" />
						<path
   class="st15"
   d="m 2927.5,1041.3 c 0,0 -9,34.7 -31.7,43.7 0.8,-5.1 0.7,-12.1 -1.4,-21.7 0,0 -0.3,0.1 -0.7,0.2 0.1,-0.1 0.2,-0.2 0.2,-0.2 0,0 21.5,-4.4 33.6,-22 z"
   id="path4089"
   inkscape:connector-curvature="0"
   style="opacity:0.34000017;fill:#fa8579;enable-background:new" />
						<path
   class="st15"
   d="m 2896.6,950.4 c 0,0 10.7,17.8 28.8,23.8 v 0 c 0,0 -24.2,-3.2 -29,-13.1 0,0 -15.7,33.6 -48.1,31.2 -0.2,-7.1 0.1,-14.3 1.1,-20.4 0.1,0 27.1,5.2 47.2,-21.5 z"
   id="path4091"
   inkscape:connector-curvature="0"
   style="opacity:0.34000017;fill:#fa8579;enable-background:new" />
						
							<linearGradient
   id="SVGID_8_"
   gradientUnits="userSpaceOnUse"
   x1="5234.106"
   y1="1154.7645"
   x2="5221.1064"
   y2="944.82471"
   gradientTransform="rotate(180,4022.3123,1124.638)">
							<stop
   offset="0"
   style="stop-color:#FDABAD"
   id="stop4093" />
							<stop
   offset="1"
   style="stop-color:#FB80B4"
   id="stop4095" />
						</linearGradient>
						<path
   class="st16"
   d="m 2850.6,1107.1 c 0,0 -48.3,18 -65.9,119.2 0,0 -16.5,123.3 35,74.7 36.2,-34.2 30.9,-193.9 30.9,-193.9 z"
   id="path4098"
   style="fill:url(#SVGID_8_)"
   inkscape:connector-curvature="0" />
						<path
   class="st17"
   d="m 2949.7,1255.3 c -1,0 -17.5,-15.6 -20.2,-18.1 -0.2,-0.2 -0.5,-0.4 -0.8,-0.5 l -7.6,-2.6 c -2.1,-0.7 -4,1.6 -2.8,3.5 4.5,6.9 12.3,16.8 8.8,16.8 l -26.7,3.7 c -1.2,0 -2.1,1 -2,2.2 0.4,3.5 1.7,9.9 6.6,9.9 0,0 -1.1,9.9 3.9,11.4 0,0 1.8,18.3 45.1,9.6 z"
   id="path4100"
   inkscape:connector-curvature="0"
   style="fill:#ffbfb5" />
						
							<linearGradient
   id="SVGID_9_"
   gradientUnits="userSpaceOnUse"
   x1="5048.7388"
   y1="1163.865"
   x2="5034.5752"
   y2="935.1228"
   gradientTransform="rotate(180,4022.3123,1124.638)">
							<stop
   offset="0"
   style="stop-color:#FDABAD"
   id="stop4102" />
							<stop
   offset="1"
   style="stop-color:#FB80B4"
   id="stop4104" />
						</linearGradient>
						<path
   class="st18"
   d="m 2975.9,1103.1 c 0,0 48.7,9.1 68.5,66.6 12.6,36.6 21.4,85.8 26.1,116.8 2.7,17.5 -11.2,33.1 -28.9,32.6 -22.4,-0.7 -55.2,-6.4 -95.2,-27 l 3.9,-42.7 10.9,3.3 c 17.5,5.4 35.7,8.1 54,8 v 0 l -26.8,-61 c 0,0 1.8,-79.5 -12.5,-96.6 z"
   id="path4107"
   style="fill:url(#SVGID_9_)"
   inkscape:connector-curvature="0" />
						
							<linearGradient
   id="SVGID_10_"
   gradientUnits="userSpaceOnUse"
   x1="1361.8973"
   y1="1080.0255"
   x2="1426.6365"
   y2="1080.0255"
   gradientTransform="matrix(0.9987,-0.05,-0.05,-0.9987,1493.946,2396.4685)">
							<stop
   offset="0"
   style="stop-color:#3B234C"
   id="stop4109" />
							<stop
   offset="0.3367"
   style="stop-color:#402550"
   id="stop4111" />
							<stop
   offset="0.75"
   style="stop-color:#4F2A5D"
   id="stop4113" />
							<stop
   offset="1"
   style="stop-color:#5C2F67"
   id="stop4115" />
						</linearGradient>
						<path
   class="st19"
   d="m 2800.9,1204.4 35.3,-1.8 c 2.4,-0.1 4.6,1.4 5.3,3.7 l 25.2,81.6 c 0.6,1.9 -0.8,3.9 -2.8,4 l -34.1,1.7 c -2.4,0.1 -4.5,-1.4 -5.3,-3.6 l -26.4,-81.6 c -0.6,-1.9 0.8,-3.9 2.8,-4 z"
   id="path4118"
   style="fill:url(#SVGID_10_)"
   inkscape:connector-curvature="0" />
						<path
   class="st17"
   d="m 2806.3,1250 c 0.7,-1.5 2.1,-2.6 3.8,-3.1 7.3,-2 28.4,-7.1 29.8,1 0,0 0,5.1 -2.8,7.8 0,0 7.3,-0.2 7.3,6.5 0,6.7 -4.1,7.1 -4.1,7.1 0,0 6.9,0.5 7.8,3.4 1.5,5.1 -4.4,8.1 -4.4,8.1 0,0 6.6,2.5 3.7,4.7 -2.9,2.2 -21.7,4.5 -24.2,3.2 -5,-2.5 -2.1,-6.1 -2.1,-6.1 0,0 -4.3,-5.4 -3.1,-10 0.2,-0.9 -5.8,-0.7 -5.1,-6.3 0.5,-3.6 -1.3,-4 -3.1,-5.1 -3,-1.5 -6.4,-4.9 -3.5,-11.2 z"
   id="path4120"
   inkscape:connector-curvature="0"
   style="fill:#ffbfb5" />
					</g>
					<g
   id="g4159">
						<path
   class="st20"
   d="m 2089.4,2058.8 38.7,34.3 c 1.2,1 0.8,2.9 -0.6,3.5 -9.6,3.9 -42.3,14.5 -103,8.7 0,0 -9.4,-0.6 -3.9,-40.7 z"
   id="path4124"
   inkscape:connector-curvature="0"
   style="fill:#fec40c" />
						<path
   class="st20"
   d="m 1863.1,2060.8 -35.1,37.6 c -1.1,1.1 -0.6,3 0.9,3.4 9.9,2.9 43.3,10.4 102.8,-1 0,0 9.2,-1.4 0,-40.6 z"
   id="path4126"
   inkscape:connector-curvature="0"
   style="fill:#fec40c" />
						<path
   class="st5"
   d="m 1954.7,1364.8 h -133.5 c 0,0 9.2,537.2 35.3,696.8 0,0 29.2,7.7 82.9,0 -15.3,-307 -10.7,-543.3 15.3,-589.4 z"
   id="path4128"
   inkscape:connector-curvature="0"
   style="fill:#5c2f67" />
						<path
   class="st5"
   d="m 1926.9,1374.5 132.9,-13.1 c 0,0 43.5,535.5 33.1,696.9 0,0 -28.3,10.5 -82.5,8.1 -14.8,-307 -42.5,-541.8 -73,-585.1 z"
   id="path4130"
   inkscape:connector-curvature="0"
   style="fill:#5c2f67" />
						
							<linearGradient
   id="SVGID_11_"
   gradientUnits="userSpaceOnUse"
   x1="1951.2578"
   y1="840.97241"
   x2="1932.5776"
   y2="1192.1562"
   gradientTransform="matrix(1,0,0,-1,0,2249.2759)">
							<stop
   offset="0"
   style="stop-color:#75BFFF"
   id="stop4132" />
							<stop
   offset="1"
   style="stop-color:#97D1FF"
   id="stop4134" />
						</linearGradient>
						<path
   class="st21"
   d="m 1898,1010.9 c 0,0 -166.6,-0.9 -140.1,192.3 l 47.6,68.8 12.4,92.8 c 0,0 97.7,32 238.6,0 9.6,-147.3 9.6,-147.3 9.6,-147.3 l 57.6,-17.6 c 0,0 -3.2,-177.7 -163.3,-182.5 z"
   id="path4137"
   style="fill:url(#SVGID_11_)"
   inkscape:connector-curvature="0" />
						<path
   class="st6"
   d="m 1758.3,1202.6 76.4,-17.9 10.6,34.4 c 0,0 82,-42.3 105.8,-39.7 23.8,2.6 52.9,21.2 42.3,29.1 0,0 -10.6,-2.6 -26.5,-5.3 -15.9,-2.6 -15.9,0 -18.5,10.6 -2.6,10.6 -18.5,-2.6 -23.8,-2.6 -5.3,0 -58.2,74.1 -95.3,79.4 -37,5.2 -71,-88 -71,-88 z"
   id="path4139"
   inkscape:connector-curvature="0"
   style="fill:#ffcfb0" />
						<polygon
   class="st4"
   points="2203.8,1221.1 2258.1,1065.6 2050.1,1070.3 1996.1,1229.6 "
   id="polygon4141"
   style="fill:#f1f2f2" />
						<path
   class="st6"
   d="m 2148.2,1223.4 c 0,0 -9.2,38 -43.6,38 -34.4,0 -68.8,-39.7 -58.2,-47.6 10.6,-7.9 56.5,11.5 56.5,11.5 z"
   id="path4143"
   inkscape:connector-curvature="0"
   style="fill:#ffcfb0" />
						<path
   class="st6"
   d="m 2123.8,1224.4 c 0,0 -11.3,-18.6 -19.2,-13.3 -7.9,5.3 5.3,13.2 0,18.5 -5.3,5.3 14.6,10.7 19.2,-5.2 z"
   id="path4145"
   inkscape:connector-curvature="0"
   style="fill:#ffcfb0" />
						<path
   class="st22"
   d="m 1996.1,1229.6 c 0,0 -97.9,-18.5 -95.3,-18.5 2.6,0 101.3,0.7 101.3,0.7 z"
   id="path4147"
   inkscape:connector-curvature="0"
   style="fill:#e6e7e8" />
						<path
   class="st6"
   d="m 2011.9,885.7 c -19.6,-8.2 -50.3,-32.9 -50.3,-32.9 0,0 5,12 -11.9,17.8 h -8.9 c 0,0 -44.4,30.3 -46.1,31.7 -10.5,8.5 -12.6,17.3 -11.4,24.8 1.7,10.7 10.6,18.8 21.3,20.6 l 4.4,0.7 c 0,0 11.4,28.8 -5,65.3 0,0 6.4,21.3 38.1,20.7 10.3,-0.2 18.8,-8.7 18.4,-19 -0.4,-8.7 1,-15.6 2.5,-20.6 3.5,1.5 7.4,2.9 11.6,4.1 48.7,14 36.7,-72.8 37.3,-113.2 z"
   id="path4149"
   inkscape:connector-curvature="0"
   style="fill:#ffcfb0" />
						<path
   class="st5"
   d="m 2012.8,899.2 c 0,0 34.2,-23.5 6.6,-63.7 -27.6,-40.2 -100.4,-35.1 -120.5,10 0,0 -32.6,-5 -35.1,17.6 -2.5,22.6 19.7,54.3 19.7,54.3 0,0 10.4,-19.2 30.5,3.4 l 2.5,-20.1 c 0,0 22.6,0 25.1,-25.1 0,0 45.2,22.6 70.3,10 z"
   id="path4151"
   inkscape:connector-curvature="0"
   style="fill:#5c2f67" />
						<path
   class="st23"
   d="m 1900.7,910.8 2.4,1.2 c 2.6,1.2 4.9,2.9 6.9,4.9 l 0.3,0.3 27.3,11.3 c 0,0.8 -0.1,1.6 0,2.4 0.6,10.8 9.6,19.2 20.3,19.2 0.4,0 0.8,0 1.2,0 11,-0.6 19.5,-10 19.1,-20.9 h 7.1 c 0,0.2 0,0.4 0,0.7 0,11.2 9.1,20.3 20.3,20.3 11.2,0 20.3,-9.1 20.3,-20.3 0,-11.2 -9.1,-20.3 -20.3,-20.3 -10,0 -18.2,7.2 -20,16.7 h -7.8 c -0.8,-4.4 -3,-8.5 -6.4,-11.5 -4,-3.6 -9.3,-5.4 -14.7,-5.1 -9.3,0.5 -16.8,7.3 -18.7,16.1 z m 87.6,18.9 c 0,-9.6 7.8,-17.3 17.3,-17.3 9.6,0 17.3,7.8 17.3,17.3 0,9.6 -7.8,17.3 -17.3,17.3 -9.6,0 -17.3,-7.8 -17.3,-17.3 z M 1945,918.1 c 3.1,-3.5 7.3,-5.5 12,-5.8 0.3,0 0.7,0 1,0 4.3,0 8.3,1.5 11.5,4.4 3.5,3.1 5.5,7.3 5.8,12 0.3,4.6 -1.3,9.1 -4.4,12.5 -3.1,3.5 -7.3,5.5 -12,5.8 -9.5,0.5 -17.8,-6.8 -18.3,-16.3 -0.3,-4.7 1.3,-9.1 4.4,-12.6 z"
   id="path4153"
   inkscape:connector-curvature="0"
   style="fill:#3c3c59" />
						<path
   class="st24"
   d="m 1928,965.6 c 12.7,17.5 34.9,29.3 34.9,29.3 -1.1,3.5 -2,8.1 -2.4,13.6 -23.8,-9.8 -32.5,-42.9 -32.5,-42.9 z"
   id="path4155"
   inkscape:connector-curvature="0"
   style="opacity:0.5;fill:#ffcfb0;enable-background:new" />
						<polygon
   class="st25"
   points="1845.8,1182.2 1845.3,1219 1834.7,1184.6 "
   id="polygon4157"
   style="opacity:0.25;fill:#75bfff;enable-background:new" />
					</g>
				</g>
				<g
   id="g4165">
					<path
   class="st4"
   d="m 2479.9,953.6 c -1.4,0 -2.8,-0.6 -3.7,-1.8 -1.6,-2.1 -1.3,-5 0.8,-6.7 l 23.2,-18.3 -23.5,-21.2 c -1.9,-1.8 -2.1,-4.8 -0.3,-6.7 1.8,-1.9 4.8,-2.1 6.7,-0.3 l 27.7,25 c 1,0.9 1.6,2.3 1.6,3.7 0,1.4 -0.7,2.7 -1.8,3.6 l -27.7,21.8 c -1,0.5 -2,0.9 -3,0.9 z"
   id="path4163"
   inkscape:connector-curvature="0"
   style="fill:#f1f2f2" />
				</g>
			</g>
		</g>
	</g>
</g>
<g
   id="g4216"
   transform="translate(-1649.8189,-697.57122)">
	<g
   id="g4193">
		<g
   id="g4182">
			<linearGradient
   id="SVGID_12_"
   gradientUnits="userSpaceOnUse"
   x1="2402.0999"
   y1="931.24988"
   x2="2572.2"
   y2="931.24988">
				<stop
   offset="0"
   style="stop-color:#75BFFF"
   id="stop4175" />
				<stop
   offset="1"
   style="stop-color:#97D1FF"
   id="stop4177" />
			</linearGradient>
			<path
   class="st26"
   d="m 2428.7,817.6 c 0,0 -26.6,0 -26.6,26.6 v 174.1 c 0,0 0,26.6 26.6,26.6 h 116.9 c 0,0 26.6,0 26.6,-26.6 V 844.2 c 0,0 0,-26.6 -26.6,-26.6 z"
   id="path4180"
   style="fill:url(#SVGID_12_)"
   inkscape:connector-curvature="0" />
		</g>
		<g
   id="g4191">
			
				<linearGradient
   id="SVGID_13_"
   gradientUnits="userSpaceOnUse"
   x1="2487.3604"
   y1="1351.7495"
   x2="2486.7144"
   y2="1219.312"
   gradientTransform="matrix(1,0,0,-1,0,2249.2759)">
				<stop
   offset="0"
   style="stop-color:#354350"
   id="stop4184" />
				<stop
   offset="1"
   style="stop-color:#516577"
   id="stop4186" />
			</linearGradient>
			<path
   class="st27"
   d="m 2444.3,856.5 c 0,0 -9.7,0 -9.7,9.7 v 128.4 c 0,0 0,9.7 9.7,9.7 h 85.8 c 0,0 9.7,0 9.7,-9.7 V 866.2 c 0,0 0,-9.7 -9.7,-9.7 z"
   id="path4189"
   style="fill:url(#SVGID_13_);stroke:#8691a1;stroke-width:5"
   inkscape:connector-curvature="0" />
		</g>
	</g>
	<g
   id="g4214">
		<g
   id="g4202">
			<linearGradient
   id="SVGID_14_"
   gradientUnits="userSpaceOnUse"
   x1="2416.7"
   y1="931.25"
   x2="2557.7"
   y2="931.25">
				<stop
   offset="0"
   style="stop-color:#75BFFF"
   id="stop4195" />
				<stop
   offset="1"
   style="stop-color:#97D1FF"
   id="stop4197" />
			</linearGradient>
			<path
   class="st28"
   d="m 2429.7,832.2 c 0,0 -13,0 -13,13 v 172.1 c 0,0 0,13 13,13 h 115 c 0,0 13,0 13,-13 V 845.2 c 0,0 0,-13 -13,-13 z"
   id="path4200"
   style="fill:url(#SVGID_14_);stroke:#5f7079"
   inkscape:connector-curvature="0" />
		</g>
		<g
   id="g4212">
			<g
   id="g4206">
				<path
   class="st29"
   d="m 2521,939.4 c -10.7,0 -19.4,-8.7 -19.4,-19.4 0,-10.7 8.7,-19.4 19.4,-19.4 10.7,0 19.4,8.7 19.4,19.4 0.1,10.7 -8.6,19.4 -19.4,19.4 z m 0,-33.9 c -8,0 -14.4,6.5 -14.4,14.4 0,8 6.5,14.4 14.4,14.4 7.9,0 14.4,-6.5 14.4,-14.4 0.1,-7.9 -6.4,-14.4 -14.4,-14.4 z"
   id="path4204"
   inkscape:connector-curvature="0"
   style="fill:#ffffff" />
			</g>
			<g
   id="g4210">
				<path
   class="st29"
   d="m 2531.8,929.9 c 0.7,-0.8 1.4,-1.8 1.9,-2.8 -6.6,-3.2 -11.2,-9.9 -11.2,-17.7 0,-1.4 0.1,-2.7 0.4,-4 -0.8,-0.1 -1.5,-0.2 -2.3,-0.2 -0.8,0 -1.6,0.1 -2.3,0.2 0.3,1.3 0.4,2.6 0.4,4 0,7.8 -4.6,14.5 -11.2,17.7 0.6,1.2 1.4,2.2 2.3,3.2 3.2,-2.3 7.1,-3.6 11.3,-3.6 4,0 7.6,1.2 10.7,3.2"
   id="path4208"
   inkscape:connector-curvature="0"
   style="fill:#ffffff" />
			</g>
		</g>
	</g>
</g>
</svg>